<svg width="60" height="60" viewBox="0 0 60 60" fill="none" xmlns="http://www.w3.org/2000/svg">
<g id="Icons/Main/marketing">
<path id="Fill 1" fill-rule="evenodd" clip-rule="evenodd" d="M38.695 37.778H44V9.778H38.695V37.778ZM44.5 38.778H38.195C37.919 38.778 37.695 38.555 37.695 38.278V9.278C37.695 9.002 37.919 8.778 38.195 8.778H44.5C44.776 8.778 45 9.002 45 9.278V38.278C45 38.555 44.776 38.778 44.5 38.778ZM16 37.778H21.304V17.974H16V37.778ZM21.804 38.778H15.5C15.224 38.778 15 38.555 15 38.278V17.474C15 17.198 15.224 16.974 15.5 16.974H21.804C22.081 16.974 22.304 17.198 22.304 17.474V38.278C22.304 38.555 22.081 38.778 21.804 38.778ZM27.348 37.778H32.653V24.908H27.348V37.778ZM33.152 38.778H26.848C26.571 38.778 26.348 38.555 26.348 38.278V24.409C26.348 24.132 26.571 23.909 26.848 23.909H33.152C33.429 23.909 33.652 24.132 33.652 24.409V38.278C33.652 38.555 33.429 38.778 33.152 38.778ZM56.435 43.643C56.435 43.918 56.21 44.143 55.935 44.143H4.065C3.79 44.143 3.565 43.918 3.565 43.643V4H56.435V43.643ZM59.5 3H56.935H3.065H0.5C0.224 3 0 3.224 0 3.5C0 3.776 0.224 4 0.5 4H2.565V43.643C2.565 44.47 3.238 45.143 4.065 45.143H25.114L15.5 57.188C15.328 57.404 15.363 57.719 15.579 57.891C15.671 57.964 15.781 58 15.891 58C16.038 58 16.183 57.936 16.282 57.812L26.393 45.143H33.607L43.718 57.812C43.816 57.936 43.962 58 44.108 58C44.218 58 44.328 57.964 44.42 57.891C44.636 57.719 44.672 57.404 44.499 57.188L34.886 45.143H55.935C56.762 45.143 57.435 44.47 57.435 43.643V4H59.5C59.776 4 60 3.776 60 3.5C60 3.224 59.776 3 59.5 3Z" fill="black"/>
</g>
</svg>
