<?xml version="1.0" encoding="UTF-8" standalone="no"?>
<!DOCTYPE svg PUBLIC "-//W3C//DTD SVG 1.1//EN" "http://www.w3.org/Graphics/SVG/1.1/DTD/svg11.dtd">
<svg width="100%" height="100%" viewBox="0 0 500 500" version="1.1" xmlns="http://www.w3.org/2000/svg" xmlns:xlink="http://www.w3.org/1999/xlink" xml:space="preserve" xmlns:serif="http://www.serif.com/" style="fill-rule:evenodd;clip-rule:evenodd;stroke-linejoin:round;stroke-miterlimit:2;">
    <g transform="matrix(12.1833,0,0,12.1833,250,250)">
        <g transform="matrix(1,0,0,1,-20,-20)">
            <path d="M16.7,39.8C7.2,38.1 0,29.9 0,20C0,9 9,0 20,0C31,0 40,9 40,20C40,29.9 32.8,38.1 23.3,39.8L22.2,38.9L17.8,38.9L16.7,39.8Z" style="fill:url(#_Linear1);fill-rule:nonzero;"/>
            <path d="M27.8,25.6L28.7,20L23.4,20L23.4,16.1C23.4,14.5 24,13.3 26.4,13.3L29,13.3L29,8.2C27.6,8 26,7.8 24.6,7.8C20,7.8 16.8,10.6 16.8,15.6L16.8,20L11.8,20L11.8,25.6L16.8,25.6L16.8,39.7C17.9,39.9 19,40 20.1,40C21.2,40 22.3,39.9 23.4,39.7L23.4,25.6L27.8,25.6Z" style="fill:white;fill-rule:nonzero;"/>
        </g>
    </g>
    <defs>
        <linearGradient id="_Linear1" x1="0" y1="0" x2="1" y2="0" gradientUnits="userSpaceOnUse" gradientTransform="matrix(2.36457e-15,-38.6163,38.6163,2.36457e-15,20.001,38.6089)"><stop offset="0" style="stop-color:rgb(0,98,224);stop-opacity:1"/><stop offset="1" style="stop-color:rgb(25,175,255);stop-opacity:1"/></linearGradient>
    </defs>
</svg>
