<svg width="138" height="35" viewBox="0 0 138 35" fill="none" xmlns="http://www.w3.org/2000/svg">
<path fill-rule="evenodd" clip-rule="evenodd" d="M23.3784 18.9748C24.0873 17.0601 25.9137 15.6903 28.0568 15.6903C30.1995 15.6903 32.0263 17.0601 32.7348 18.9748H23.3784ZM36.1003 22.2957C36.1944 21.788 36.246 21.2649 36.246 20.7292C36.246 16.1147 32.5794 12.3745 28.0568 12.3745C23.5338 12.3745 19.8672 16.1147 19.8672 20.7292C19.8672 21.2649 19.9188 21.788 20.0133 22.2957H20.0192C20.7671 26.1608 24.2278 29.0835 28.3863 29.0835C31.2474 29.0835 33.7768 27.6994 35.3213 25.5776L32.5953 23.671C31.6511 24.9388 30.1194 25.7677 28.3863 25.7677C26.0846 25.7677 24.1304 24.3091 23.4489 22.2957H32.8034H36.1003Z" fill="#0A0D16"/>
<path fill-rule="evenodd" clip-rule="evenodd" d="M45.1793 12.8969H42.8993V8.24414H39.5733V12.8969H37.293V16.2179H39.5733V28.5622H42.8993V16.2179H45.1793V12.8969Z" fill="#0A0D16"/>
<mask id="mask0_0_1878" style="mask-type:luminance" maskUnits="userSpaceOnUse" x="47" y="12" width="17" height="23">
<path fill-rule="evenodd" clip-rule="evenodd" d="M47.2715 12.374H63.6872V34.8569H47.2715V12.374Z" fill="white"/>
</mask>
<g mask="url(#mask0_0_1878)">
<path fill-rule="evenodd" clip-rule="evenodd" d="M55.4795 25.7676C52.818 25.7676 50.651 23.5622 50.5975 20.8315V20.6263C50.651 17.8955 52.818 15.6898 55.4795 15.6898C58.1742 15.6898 60.3664 17.9504 60.3664 20.7287C60.3664 23.507 58.1742 25.7676 55.4795 25.7676M55.4795 12.374C53.6505 12.374 51.962 12.9838 50.5975 14.0131V12.8964H47.2715V34.8569H50.5975V27.4447C51.962 28.474 53.6505 29.0834 55.4795 29.0834C60.0125 29.0834 63.6872 25.3432 63.6872 20.7287C63.6872 16.1146 60.0125 12.374 55.4795 12.374" fill="#0A0D16"/>
</g>
<path fill-rule="evenodd" clip-rule="evenodd" d="M73.4639 12.3745C71.6352 12.3745 69.9468 12.9839 68.5823 14.0129V12.8969H65.2559V20.7292V20.7296V28.5622H68.5823V20.619C68.6398 17.8916 70.805 15.6903 73.4639 15.6903C74.0967 15.6903 74.6996 15.8189 75.255 16.0455V12.5764C74.6782 12.4452 74.0794 12.3745 73.4639 12.3745" fill="#0A0D16"/>
<path fill-rule="evenodd" clip-rule="evenodd" d="M83.773 12.3745C79.0681 12.3745 75.2539 16.1147 75.2539 20.7292C75.2539 25.3433 79.0681 29.0839 83.773 29.0839C88.4783 29.0839 92.2921 25.3433 92.2921 20.7292C92.2921 16.1147 88.4783 12.3745 83.773 12.3745M83.773 15.6903C86.6396 15.6903 88.9713 17.9506 88.9713 20.7292C88.9713 23.5078 86.6396 25.7681 83.773 25.7681C80.9067 25.7681 78.5748 23.5078 78.5748 20.7292C78.5748 17.9506 80.9067 15.6903 83.773 15.6903" fill="#0A0D16"/>
<path fill-rule="evenodd" clip-rule="evenodd" d="M129.314 12.3745C124.609 12.3745 120.795 16.1147 120.795 20.7292C120.795 25.3433 124.609 29.0839 129.314 29.0839C134.019 29.0839 137.833 25.3433 137.833 20.7292C137.833 16.1147 134.019 12.3745 129.314 12.3745M129.314 15.6903C132.181 15.6903 134.513 17.9506 134.513 20.7292C134.513 23.5078 132.181 25.7681 129.314 25.7681C126.448 25.7681 124.116 23.5078 124.116 20.7292C124.116 17.9506 126.448 15.6903 129.314 15.6903" fill="#0A0D16"/>
<path fill-rule="evenodd" clip-rule="evenodd" d="M113.068 12.3756C110.985 12.3436 108.832 12.9902 107.329 15.2758C106.204 13.4665 104.428 12.3756 101.932 12.3756C100.207 12.3756 98.5135 12.88 97.1873 14.7475V12.897H93.8613V28.5622H97.1873V20.0495C97.1873 17.216 98.757 15.7161 101.182 15.7161C103.538 15.7161 104.864 17.2524 104.864 20.0134V28.5622H108.189V20.0495C108.189 17.216 109.96 15.7161 112.316 15.7161C114.741 15.7161 115.901 17.2524 115.901 20.0134V28.5622H119.226V18.8551C119.226 15.0025 117.029 12.411 113.068 12.3756" fill="#0A0D16"/>
<path fill-rule="evenodd" clip-rule="evenodd" d="M17.7765 18.9746H11.1245V22.2956H14.4502V24.4449C12.7277 25.2901 10.7928 25.7676 8.74381 25.7676C5.37241 25.7676 2.30799 24.4781 0 22.3748V26.581C2.53492 28.163 5.53144 29.0833 8.74381 29.0833C12.0783 29.0833 15.1822 28.0941 17.7762 26.3994V26.0306V22.2956H17.7765V18.9746Z" fill="#0A0D16"/>
<mask id="mask1_0_1878" style="mask-type:luminance" maskUnits="userSpaceOnUse" x="0" y="0" width="18" height="11">
<path fill-rule="evenodd" clip-rule="evenodd" d="M0 0H17.2736V10.0862H0V0Z" fill="white"/>
</mask>
<g mask="url(#mask1_0_1878)">
<path fill-rule="evenodd" clip-rule="evenodd" d="M0 10.0858C1.03721 9.43846 2.15191 8.90425 3.32639 8.49641V6.26267H0M12.6244 8.04399V2.21004H9.2984V7.59267C10.4404 7.63062 11.5529 7.78572 12.6244 8.04399M17.2736 9.9513V5.15741H13.948V8.42125C15.1202 8.80993 16.2346 9.32462 17.2736 9.9513M4.6492 8.09593V-0.000488281H7.97522V7.60262C6.83284 7.65493 5.71999 7.8222 4.6492 8.09593" fill="#0A0D16"/>
</g>
</svg>
