<svg width="138" height="35" viewBox="0 0 138 35" fill="none" xmlns="http://www.w3.org/2000/svg">
<path fillRule="evenodd" clipRule="evenodd" d="M23.3784 18.9747C24.0873 17.06 25.9137 15.6902 28.0568 15.6902C30.1995 15.6902 32.0263 17.06 32.7348 18.9747H23.3784ZM36.1003 22.2956C36.1944 21.7879 36.246 21.2648 36.246 20.7291C36.246 16.1146 32.5794 12.3744 28.0568 12.3744C23.5338 12.3744 19.8672 16.1146 19.8672 20.7291C19.8672 21.2648 19.9188 21.7879 20.0133 22.2956H20.0192C20.7671 26.1607 24.2278 29.0834 28.3863 29.0834C31.2474 29.0834 33.7768 27.6992 35.3213 25.5775L32.5953 23.6709C31.6511 24.9387 30.1194 25.7676 28.3863 25.7676C26.0846 25.7676 24.1304 24.309 23.4489 22.2956H32.8034H36.1003Z" fill="white"/>
<path fillRule="evenodd" clipRule="evenodd" d="M45.1793 12.8968H42.8993V8.24402H39.5733V12.8968H37.293V16.2178H39.5733V28.5621H42.8993V16.2178H45.1793V12.8968Z" fill="white"/>
<mask id="mask0_0_1324" style="mask-type:luminance" maskUnits="userSpaceOnUse" x="47" y="12" width="17" height="23">
<path fillRule="evenodd" clipRule="evenodd" d="M47.2715 12.3742H63.6872V34.8571H47.2715V12.3742Z" fill="white"/>
</mask>
<g mask="url(#mask0_0_1324)">
<path fillRule="evenodd" clipRule="evenodd" d="M55.4795 25.7678C52.818 25.7678 50.651 23.5624 50.5975 20.8317V20.6265C50.651 17.8957 52.818 15.69 55.4795 15.69C58.1742 15.69 60.3664 17.9506 60.3664 20.7289C60.3664 23.5072 58.1742 25.7678 55.4795 25.7678M55.4795 12.3742C53.6505 12.3742 51.962 12.9839 50.5975 14.0133V12.8966H47.2715V34.8571H50.5975V27.4448C51.962 28.4742 53.6505 29.0836 55.4795 29.0836C60.0125 29.0836 63.6872 25.3434 63.6872 20.7289C63.6872 16.1148 60.0125 12.3742 55.4795 12.3742" fill="white"/>
</g>
<path fillRule="evenodd" clipRule="evenodd" d="M73.4639 12.3744C71.6352 12.3744 69.9468 12.9838 68.5823 14.0128V12.8968H65.2559V20.7291V20.7294V28.5621H68.5823V20.6189C68.6398 17.8915 70.805 15.6902 73.4639 15.6902C74.0967 15.6902 74.6996 15.8188 75.255 16.0453V12.5763C74.6782 12.4451 74.0794 12.3744 73.4639 12.3744" fill="white"/>
<path fillRule="evenodd" clipRule="evenodd" d="M83.773 12.3744C79.0681 12.3744 75.2539 16.1146 75.2539 20.7291C75.2539 25.3432 79.0681 29.0838 83.773 29.0838C88.4783 29.0838 92.2921 25.3432 92.2921 20.7291C92.2921 16.1146 88.4783 12.3744 83.773 12.3744M83.773 15.6902C86.6396 15.6902 88.9713 17.9504 88.9713 20.7291C88.9713 23.5077 86.6396 25.768 83.773 25.768C80.9067 25.768 78.5748 23.5077 78.5748 20.7291C78.5748 17.9504 80.9067 15.6902 83.773 15.6902" fill="white"/>
<path fillRule="evenodd" clipRule="evenodd" d="M129.314 12.3744C124.609 12.3744 120.795 16.1146 120.795 20.7291C120.795 25.3432 124.609 29.0838 129.314 29.0838C134.019 29.0838 137.833 25.3432 137.833 20.7291C137.833 16.1146 134.019 12.3744 129.314 12.3744M129.314 15.6902C132.181 15.6902 134.513 17.9504 134.513 20.7291C134.513 23.5077 132.181 25.768 129.314 25.768C126.448 25.768 124.116 23.5077 124.116 20.7291C124.116 17.9504 126.448 15.6902 129.314 15.6902" fill="white"/>
<path fillRule="evenodd" clipRule="evenodd" d="M113.068 12.3755C110.985 12.3435 108.832 12.99 107.329 15.2757C106.204 13.4664 104.428 12.3755 101.932 12.3755C100.207 12.3755 98.5135 12.8799 97.1873 14.7474V12.8968H93.8613V28.5621H97.1873V20.0494C97.1873 17.2158 98.757 15.716 101.182 15.716C103.538 15.716 104.864 17.2523 104.864 20.0132V28.5621H108.189V20.0494C108.189 17.2158 109.96 15.716 112.316 15.716C114.741 15.716 115.901 17.2523 115.901 20.0132V28.5621H119.226V18.8549C119.226 15.0024 117.029 12.4109 113.068 12.3755" fill="white"/>
<path fillRule="evenodd" clipRule="evenodd" d="M17.7765 18.9747H11.1245V22.2956H14.4502V24.445C12.7277 25.2901 10.7928 25.7676 8.74381 25.7676C5.37241 25.7676 2.30799 24.4781 0 22.3748V26.5811C2.53492 28.1631 5.53144 29.0834 8.74381 29.0834C12.0783 29.0834 15.1822 28.0942 17.7762 26.3995V26.0307V22.2956H17.7765V18.9747Z" fill="white"/>
<mask id="mask1_0_1324" style="mask-type:luminance" maskUnits="userSpaceOnUse" x="0" y="0" width="18" height="11">
<path fillRule="evenodd" clipRule="evenodd" d="M0 0H17.2736V10.0862H0V0Z" fill="white"/>
</mask>
<g mask="url(#mask1_0_1324)">
<path fillRule="evenodd" clipRule="evenodd" d="M0 10.086C1.03721 9.43864 2.15191 8.90443 3.32639 8.49659V6.26285H0M12.6244 8.04417V2.21022H9.2984V7.59285C10.4404 7.6308 11.5529 7.78591 12.6244 8.04417M17.2736 9.95148V5.15759H13.948V8.42143C15.1202 8.81012 16.2346 9.3248 17.2736 9.95148M4.6492 8.09612V-0.000305176H7.97522V7.6028C6.83284 7.65512 5.71999 7.82238 4.6492 8.09612" fill="white"/>
</g>
</svg>
