<svg width="60" height="60" viewBox="0 0 60 60" fill="none" xmlns="http://www.w3.org/2000/svg">
<g id="Icons/Main/target">
<path id="Fill 1" fill-rule="evenodd" clip-rule="evenodd" d="M28.717 45.8916C26.746 45.8916 24.833 45.5046 23.03 44.7436C21.291 44.0066 19.729 42.9536 18.387 41.6126C17.046 40.2716 15.992 38.7086 15.257 36.9686C14.495 35.1676 14.109 33.2536 14.109 31.2826C14.109 29.3106 14.495 27.3976 15.257 25.5966C15.992 23.8566 17.046 22.2946 18.387 20.9526C19.729 19.6106 21.291 18.5576 23.03 17.8226C26.634 16.2966 30.801 16.2976 34.403 17.8226C34.658 17.9296 34.777 18.2236 34.67 18.4776C34.561 18.7326 34.266 18.8496 34.014 18.7436C30.659 17.3246 26.776 17.3236 23.42 18.7436C21.8 19.4286 20.344 20.4096 19.094 21.6596C17.844 22.9106 16.863 24.3656 16.177 25.9856C15.468 27.6626 15.109 29.4446 15.109 31.2826C15.109 33.1206 15.468 34.9026 16.177 36.5796C16.863 38.2006 17.844 39.6566 19.094 40.9056C20.344 42.1556 21.8 43.1366 23.42 43.8216C26.779 45.2416 30.658 45.2416 34.014 43.8216C35.634 43.1366 37.09 42.1556 38.34 40.9056C39.59 39.6566 40.571 38.2016 41.257 36.5796C41.967 34.9026 42.326 33.1206 42.326 31.2826C42.326 29.4446 41.967 27.6626 41.257 25.9856C41.149 25.7316 41.268 25.4376 41.523 25.3306C41.776 25.2236 42.07 25.3416 42.178 25.5966C42.94 27.3976 43.326 29.3106 43.326 31.2826C43.326 33.2536 42.94 35.1676 42.178 36.9686C41.442 38.7096 40.388 40.2716 39.047 41.6126C37.705 42.9536 36.142 44.0076 34.403 44.7436C32.601 45.5046 30.688 45.8916 28.717 45.8916ZM28.717 59.9996C24.842 59.9996 21.08 59.2406 17.539 57.7436C14.12 56.2966 11.049 54.2266 8.411 51.5886C5.775 48.9536 3.704 45.8816 2.257 42.4596C0.759 38.9206 0 35.1596 0 31.2826C0 27.4056 0.759 23.6446 2.257 20.1046C3.704 16.6836 5.774 13.6126 8.411 10.9766C11.049 8.33859 14.12 6.26759 17.539 4.82259C21.08 3.32459 24.841 2.56559 28.717 2.56559C32.593 2.56559 36.355 3.32459 39.895 4.82259C40.15 4.92959 40.269 5.22359 40.162 5.47759C40.053 5.73259 39.759 5.84959 39.507 5.74359C36.09 4.29859 32.459 3.56559 28.717 3.56559C24.975 3.56559 21.345 4.29859 17.928 5.74359C14.628 7.13859 11.664 9.13759 9.118 11.6836C6.573 14.2276 4.574 17.1926 3.177 20.4946C1.733 23.9106 1 27.5396 1 31.2826C1 35.0256 1.733 38.6556 3.177 42.0716C4.574 45.3726 6.573 48.3376 9.118 50.8816C11.664 53.4276 14.629 55.4256 17.928 56.8216C21.346 58.2676 24.976 58.9996 28.717 58.9996C32.459 58.9996 36.089 58.2676 39.507 56.8216C42.806 55.4256 45.77 53.4276 48.316 50.8816C50.86 48.3386 52.859 45.3736 54.257 42.0706C55.702 38.6556 56.434 35.0256 56.434 31.2826C56.434 27.5396 55.702 23.9096 54.257 20.4946C54.149 20.2396 54.268 19.9466 54.523 19.8386C54.776 19.7326 55.07 19.8496 55.178 20.1046C56.675 23.6436 57.434 27.4046 57.434 31.2826C57.434 35.1606 56.675 38.9206 55.178 42.4596C53.729 45.8826 51.659 48.9546 49.023 51.5886C46.385 54.2266 43.315 56.2966 39.895 57.7436C36.354 59.2406 32.592 59.9996 28.717 59.9996ZM49.032 17.9566H42.044V10.9676L51.304 1.70659V8.19559C51.304 8.47259 51.528 8.69559 51.804 8.69559H58.293L49.032 17.9566ZM59.962 8.00459C59.884 7.81759 59.702 7.69559 59.5 7.69559H52.304V0.499592C52.304 0.297592 52.182 0.115592 51.996 0.0375922C51.81 -0.0394078 51.594 0.00359215 51.451 0.146592L41.19 10.4076C41.096 10.5006 41.044 10.6276 41.044 10.7606V18.2496L28.363 30.9286C28.168 31.1236 28.168 31.4406 28.363 31.6356C28.461 31.7336 28.589 31.7826 28.717 31.7826C28.845 31.7826 28.973 31.7336 29.071 31.6356L41.751 18.9566H49.239C49.372 18.9566 49.499 18.9036 49.592 18.8096L59.853 8.54959C59.996 8.40659 60.039 8.19159 59.962 8.00459Z" fill="black"/>
</g>
</svg>
