<svg width="22" height="22" viewBox="0 0 22 22" fill="none" xmlns="http://www.w3.org/2000/svg">
<mask id="mask0_13_2136" style="mask-type:luminance" maskUnits="userSpaceOnUse" x="0" y="0" width="22" height="23">
<path fillRule="evenodd" clipRule="evenodd" d="M0 0H22V22.0006H0V0Z" fill="white"/>
</mask>
<g mask="url(#mask0_13_2136)">
<path fillRule="evenodd" clipRule="evenodd" d="M2.64146 0C1.18322 0 0 1.18322 0 2.64215C0 4.10038 1.18322 5.30835 2.64146 5.30835C4.10038 5.30835 5.2836 4.10038 5.2836 2.64215C5.28223 1.18322 4.099 0 2.64146 0ZM0.363011 22.0007H4.92472V7.31248H0.363011V22.0007ZM21.9945 22.0007V22H22V13.9306C22 9.9835 21.1509 6.94328 16.5363 6.94328C14.3169 6.94328 12.8285 8.16019 12.2214 9.31454H12.1568V7.31179H7.78137V22H12.3376V14.726C12.3376 12.8113 12.7006 10.9598 15.0718 10.9598C17.4087 10.9598 17.4431 13.1454 17.4431 14.8491V22.0007H21.9945Z" fill="#292929"/>
</g>
</svg>
