<svg width="60" height="60" viewBox="0 0 60 60" fill="none" xmlns="http://www.w3.org/2000/svg">
<path fillRule="evenodd" clipRule="evenodd" d="M60 31.16C60 36.222 59.247 39.969 57.631 42.954C55.842 46.257 51.108 50.597 47.227 49.836C44.364 49.265 42.628 46.227 42.066 40.806C42.05 40.645 42.034 40.474 42.019 40.31C42.009 40.346 42.006 40.382 41.988 40.416C39.823 44.63 36.986 46.944 32.197 48.404C31.058 48.751 29.863 48.922 28.649 48.922C25.602 48.922 22.431 47.85 19.693 45.822C15.393 42.637 12.826 37.639 12.826 32.45C12.826 18.837 23.863 13.896 31.282 13.896C36.813 13.896 42.044 16.646 42.044 19.554C42.044 19.83 41.82 20.054 41.544 20.054C41.268 20.054 41.044 19.83 41.044 19.554C41.044 17.501 36.448 14.896 31.282 14.896C24.266 14.896 13.826 19.571 13.826 32.45C13.826 37.323 16.242 42.021 20.288 45.018C23.864 47.667 28.207 48.577 31.906 47.447C36.408 46.075 39.071 43.906 41.1 39.959C41.226 39.712 41.528 39.615 41.772 39.743C41.872 39.794 41.939 39.878 41.985 39.971C41.26 32.438 41.012 22.149 43.634 14.239C43.72 13.976 44.004 13.834 44.266 13.921C44.527 14.008 44.67 14.291 44.583 14.553C41.92 22.589 42.285 33.209 43.061 40.703C43.565 45.568 45.073 48.387 47.422 48.854C50.716 49.506 55.07 45.581 56.752 42.477C58.285 39.644 59 36.049 59 31.16C59 27.225 58.236 23.403 56.73 19.799C55.237 16.313 53.141 13.198 50.501 10.544C47.86 7.889 44.763 5.782 41.294 4.28C37.715 2.767 33.914 2 30 2C26.086 2 22.285 2.767 18.703 4.282C15.237 5.782 12.139 7.89 9.5 10.544C6.859 13.199 4.763 16.313 3.268 19.803C1.764 23.402 1 27.224 1 31.16C1 35.097 1.764 38.919 3.27 42.523C4.763 46.008 6.859 49.123 9.5 51.777C12.14 54.431 15.238 56.539 18.707 58.041C18.96 58.151 19.076 58.445 18.967 58.698C18.885 58.888 18.701 59 18.507 59C18.441 59 18.374 58.987 18.309 58.959C14.724 57.406 11.521 55.227 8.791 52.482C6.061 49.737 3.894 46.517 2.349 42.913C0.79 39.182 0 35.229 0 31.16C0 27.091 0.79 23.139 2.347 19.413C3.894 15.803 6.061 12.583 8.791 9.839C11.52 7.095 14.722 4.915 18.309 3.362C22.02 1.794 25.952 1 30 1C34.048 1 37.98 1.794 41.687 3.361C45.277 4.915 48.479 7.094 51.21 9.839C53.939 12.583 56.106 15.803 57.651 19.409C59.21 23.14 60 27.093 60 31.16" fill="#D5FF40"/>
</svg>
