<svg width="60" height="61" viewBox="0 0 60 61" fill="none" xmlns="http://www.w3.org/2000/svg">
<path fillRule="evenodd" clipRule="evenodd" d="M37.4619 18.442C37.4619 22.561 34.1139 25.913 29.9999 25.913C25.8849 25.913 22.5379 22.561 22.5379 18.442C22.5379 14.322 25.8849 10.971 29.9999 10.971C34.1139 10.971 37.4619 14.322 37.4619 18.442V18.442ZM38.4619 18.442C38.4619 13.771 34.6659 9.97105 29.9999 9.97105C25.3339 9.97105 21.5379 13.771 21.5379 18.442C21.5379 23.113 25.3339 26.913 29.9999 26.913C34.6659 26.913 38.4619 23.113 38.4619 18.442V18.442ZM47.0179 19.035C47.0179 30.348 32.4709 46.025 29.9989 48.607C27.5229 46.033 12.9609 30.415 12.9829 19.035C12.9829 9.64105 20.6169 1.99805 29.9999 1.99805C39.3839 1.99805 47.0179 9.64105 47.0179 19.035V19.035ZM30.3549 49.677C31.0759 48.95 48.0179 31.749 48.0179 19.035C48.0179 9.08905 39.9349 0.998047 29.9999 0.998047C20.0659 0.998047 11.9829 9.08905 11.9829 19.034C11.9579 31.823 28.9239 48.954 29.6469 49.678L30.0009 50.032L30.3549 49.677ZM59.4999 60.998C59.4239 60.998 59.3469 60.981 59.2759 60.945L44.0959 53.347L30.2029 59.511C30.0739 59.567 29.9259 59.567 29.7969 59.511L15.9039 53.347L0.723937 60.945C0.556937 61.028 0.357937 61.012 0.207937 60.903C0.0569373 60.795 -0.0210627 60.611 0.0049373 60.428L5.13494 24.475C5.16994 24.229 5.38094 24.046 5.62994 24.046H8.19594C8.47194 24.046 8.69594 24.269 8.69594 24.546C8.69594 24.822 8.47194 25.046 8.19594 25.046H6.06394L1.12994 59.624L15.6679 52.347C15.8009 52.28 15.9579 52.277 16.0939 52.337L29.9999 58.507L43.9049 52.337C44.0439 52.277 44.1979 52.28 44.3319 52.347L58.8699 59.624L53.9359 25.046H51.8049C51.5279 25.046 51.3049 24.822 51.3049 24.546C51.3049 24.269 51.5279 24.046 51.8049 24.046H54.3689C54.6179 24.046 54.8289 24.229 54.8639 24.475L59.9949 60.428C60.0219 60.611 59.9429 60.795 59.7919 60.903C59.7049 60.966 59.6029 60.998 59.4999 60.998V60.998Z" fill="#D5FF40"/>
</svg>
