<svg xmlns="http://www.w3.org/2000/svg" xmlns:xlink="http://www.w3.org/1999/xlink" width="60" height="50" viewBox="0 0 60 50" version="1.1">
    <title>Fill 1</title>
    <g id="⚙️-Symbols" stroke="none" stroke-width="1" fill="none" fill-rule="evenodd">
        <g id="Icons/Main/browser" transform="translate(0.000000, -5.000000)" fill="#FFFFFF">
            <path d="M22.913,10.3979 C22.086,10.3979 21.413,11.0709 21.413,11.8979 C21.413,12.7249 22.086,13.3979 22.913,13.3979 C23.74,13.3979 24.413,12.7249 24.413,11.8979 C24.413,11.0709 23.74,10.3979 22.913,10.3979 M22.913,14.3979 C21.535,14.3979 20.413,13.2759 20.413,11.8979 C20.413,10.5199 21.535,9.3979 22.913,9.3979 C24.291,9.3979 25.413,10.5199 25.413,11.8979 C25.413,13.2759 24.291,14.3979 22.913,14.3979 M14.913,10.3979 C14.086,10.3979 13.413,11.0709 13.413,11.8979 C13.413,12.7249 14.086,13.3979 14.913,13.3979 C15.74,13.3979 16.413,12.7249 16.413,11.8979 C16.413,11.0709 15.74,10.3979 14.913,10.3979 M14.913,14.3979 C13.535,14.3979 12.413,13.2759 12.413,11.8979 C12.413,10.5199 13.535,9.3979 14.913,9.3979 C16.291,9.3979 17.413,10.5199 17.413,11.8979 C17.413,13.2759 16.291,14.3979 14.913,14.3979 M6.913,10.3979 C6.086,10.3979 5.413,11.0709 5.413,11.8979 C5.413,12.7249 6.086,13.3979 6.913,13.3979 C7.74,13.3979 8.413,12.7249 8.413,11.8979 C8.413,11.0709 7.74,10.3979 6.913,10.3979 M6.913,14.3979 C5.535,14.3979 4.413,13.2759 4.413,11.8979 C4.413,10.5199 5.535,9.3979 6.913,9.3979 C8.291,9.3979 9.413,10.5199 9.413,11.8979 C9.413,13.2759 8.291,14.3979 6.913,14.3979 M56.934,53.9999 L3.065,53.9999 C1.927,53.9999 1,53.0669 1,51.9209 L1,18.8949 L59,18.8949 L59,51.9209 C59,53.0669 58.073,53.9999 56.934,53.9999 M3.605,5.9999 L56.394,5.9999 C57.831,5.9999 59,7.1759 59,8.6219 L59,17.8949 L1,17.8949 L1,8.6219 C1,7.1759 2.168,5.9999 3.605,5.9999 M56.394,4.9999 L3.605,4.9999 C1.617,4.9999 0,6.6249 0,8.6219 L0,51.9209 C0,53.6189 1.375,54.9999 3.065,54.9999 L56.934,54.9999 C58.625,54.9999 60,53.6189 60,51.9209 L60,8.6219 C60,6.6249 58.383,4.9999 56.394,4.9999" id="Fill-1"/>
        </g>
    </g>
</svg>