<svg data-name="Group 14228" xmlns="http://www.w3.org/2000/svg" width="154.777" height="38"><defs><clipPath id="a"><path data-name="Rectangle 2610" fill="none" d="M0 0h154.777v38H0z"/></clipPath></defs><g data-name="Group 14227" clip-path="url(#a)"><path data-name="Path 31353" d="M17.448 21.967c0-3.6-1.927-5.344-4.442-5.344-2.623 0-4.71 1.745-4.71 5.344v16.032H0v-28.9h8.3v4.035a8.787 8.787 0 017.761-4.035 8.675 8.675 0 017.868 4.472c1.713-2.563 4.71-4.472 9.1-4.472 5.887 0 10.169 3.817 10.169 12.542v16.358H34.9V21.967c0-3.6-1.927-5.344-4.443-5.344-2.676 0-4.71 1.745-4.71 5.344v16.032h-8.3z" fill="#fff"/><path data-name="Path 31354" d="M46.882 23.603c0-9.42 7.011-14.5 14.183-14.5 7.065 0 15.361 4.924 13.594 17.662h-19.8c1.124 3 3.907 4.5 7.6 4.5a10.524 10.524 0 006.69-2.141l3.747 3.907A14.212 14.212 0 0161.55 38c-7.707 0-14.665-5.245-14.665-14.4m20.5-2.783c-.589-3.211-3.426-4.763-6.209-4.763a6.4 6.4 0 00-6.476 4.763z" fill="#fff"/><path data-name="Rectangle 2609" fill="#fff" d="M101.204 0h8.296v38h-8.296z"/><path data-name="Path 31355" d="M114.53 0h8.3v7.225h-8.3zm0 9.1h8.3V38h-8.3z" fill="#fff"/><path data-name="Path 31356" d="M127.856 9.098h8.3v4.144a9.342 9.342 0 018.242-4.144c5.62 0 10.383 3.545 10.383 12.215v16.686h-8.3V22.785c0-3.544-1.766-6.162-5.191-6.162-3.372 0-5.138 2.618-5.138 6.162v15.214h-8.3z" fill="#fff"/><path data-name="Path 31357" d="M86.915 16.934V9.098h-8.3v28.9h8.3V16.934z" fill="#fff"/><path data-name="Path 31358" d="M89.39 13.769a4.67 4.67 0 114.67 4.67 4.576 4.576 0 01-4.67-4.67" fill="#3c3c3b"/></g></svg>