<svg xmlns:xlink="http://www.w3.org/1999/xlink" class="w-16 h-16 sm:w-10 sm:h-10" viewBox="0 0 56 56" fill="none" xmlns="http://www.w3.org/2000/svg" width="56"  height="56" ><path d="M26.1683 0.0436203C26.048 0.0545567 25.6653 0.0928342 25.3208 0.120175C17.3755 0.836512 9.93321 5.12359 5.21961 11.7128C2.59487 15.3765 0.916124 19.5323 0.281811 23.9343C0.0576145 25.4708 0.0302734 25.9247 0.0302734 28.0081C0.0302734 30.0915 0.0576145 30.5453 0.281811 32.0819C1.80198 42.5863 9.27703 51.412 19.4151 54.682C21.2305 55.2671 23.1444 55.6663 25.3208 55.9069C26.1683 55.9999 29.8321 55.9999 30.6796 55.9069C34.4363 55.4913 37.6188 54.5617 40.7575 52.9595C41.2388 52.7135 41.3317 52.6479 41.2661 52.5932C41.2223 52.5604 39.1718 49.8099 36.7111 46.4852L32.2381 40.4428L26.6331 32.1475C23.5491 27.587 21.0118 23.8577 20.9899 23.8577C20.9681 23.8522 20.9462 27.5378 20.9353 32.0382C20.9189 39.9179 20.9134 40.235 20.815 40.4209C20.6728 40.6889 20.5634 40.7982 20.3338 40.9185C20.1588 41.006 20.0057 41.0224 19.18 41.0224H18.234L17.9824 40.8638C17.8184 40.76 17.6981 40.6232 17.6161 40.4647L17.5012 40.2186L17.5122 29.2548L17.5286 18.2856L17.6981 18.0723C17.7856 17.9575 17.9715 17.8099 18.1027 17.7388C18.3269 17.6294 18.4144 17.6185 19.3604 17.6185C20.4759 17.6185 20.6619 17.6622 20.9517 17.9794C21.0337 18.0669 24.0686 22.6383 27.6994 28.1448C31.3303 33.6513 36.2955 41.1701 38.7343 44.8611L43.1636 51.5706L43.3878 51.423C45.3727 50.1325 47.4725 48.2952 49.1349 46.3813C52.6728 42.3184 54.953 37.3642 55.7186 32.0819C55.9428 30.5453 55.9701 30.0915 55.9701 28.0081C55.9701 25.9247 55.9428 25.4708 55.7186 23.9343C54.1984 13.4298 46.7234 4.60411 36.5853 1.33412C34.7972 0.754488 32.8943 0.355309 30.7616 0.114707C30.2367 0.0600249 26.6222 -0.000125447 26.1683 0.0436203ZM37.6188 16.9623C37.8813 17.0935 38.0945 17.3451 38.1711 17.6075C38.2148 17.7497 38.2258 20.79 38.2148 27.6417L38.1984 37.4736L36.465 34.816L34.7261 32.1585V25.0115C34.7261 20.3909 34.748 17.7934 34.7808 17.6677C34.8683 17.3615 35.0597 17.1209 35.3221 16.9787C35.5463 16.8639 35.6284 16.8529 36.4869 16.8529C37.2962 16.8529 37.4383 16.8639 37.6188 16.9623Z" fill="black"></path><path d="M42.8896 51.691C42.6982 51.8113 42.6381 51.8933 42.8076 51.8004C42.9279 51.7293 43.1247 51.5816 43.0919 51.5762C43.0755 51.5762 42.9826 51.6309 42.8896 51.691ZM42.5123 51.9371C42.4139 52.0136 42.4139 52.0191 42.5342 51.9589C42.5998 51.9261 42.6545 51.8879 42.6545 51.8769C42.6545 51.8332 42.6271 51.8441 42.5123 51.9371ZM42.2389 52.1011C42.1405 52.1777 42.1405 52.1831 42.2608 52.123C42.3264 52.0902 42.3811 52.0519 42.3811 52.041C42.3811 51.9972 42.3537 52.0082 42.2389 52.1011ZM41.9655 52.2652C41.8671 52.3417 41.8671 52.3472 41.9874 52.287C42.053 52.2542 42.1077 52.216 42.1077 52.205C42.1077 52.1613 42.0803 52.1722 41.9655 52.2652ZM41.5499 52.4839C41.3421 52.5933 41.353 52.637 41.5608 52.5331C41.6538 52.4839 41.7249 52.4347 41.7249 52.4237C41.7249 52.3855 41.7194 52.3909 41.5499 52.4839Z" fill="black"></path></svg>