<svg width="2080" height="448" viewBox="0 0 2080 448" fill="none" xmlns="http://www.w3.org/2000/svg">
<g clip-path="url(#clip0_0_896)">
<rect opacity="0.5" x="1980.5" y="106.5" width="99" height="77" stroke="#3B3D44"/>
<rect opacity="0.5" x="1870.5" y="134.5" width="99" height="99" stroke="#3B3D44"/>
<rect opacity="0.5" x="1760.5" y="106.5" width="99" height="77" stroke="#3B3D44"/>
<rect opacity="0.5" x="1650.5" y="134.5" width="99" height="129" stroke="#3B3D44"/>
<rect opacity="0.5" x="1540.5" y="0.5" width="99" height="447" stroke="#3B3D44"/>
<rect opacity="0.5" x="1430.5" y="134.5" width="99" height="89" stroke="#3B3D44"/>
<rect opacity="0.5" x="1320.5" y="54.5" width="99" height="129" stroke="#3B3D44"/>
<rect opacity="0.5" x="1210.5" y="134.5" width="99" height="119" stroke="#3B3D44"/>
<rect opacity="0.5" x="1100.5" y="84.5" width="99" height="99" stroke="#3B3D44"/>
<rect opacity="0.5" x="990.5" y="134.5" width="99" height="79" stroke="#3B3D44"/>
<rect opacity="0.5" x="880.5" y="54.5" width="99" height="129" stroke="#3B3D44"/>
<rect opacity="0.5" x="770.5" y="134.5" width="99" height="99" stroke="#3B3D44"/>
<rect opacity="0.5" x="660.5" y="84.5" width="99" height="119" stroke="#3B3D44"/>
<rect opacity="0.5" x="550.5" y="134.5" width="99" height="139" stroke="#3B3D44"/>
<rect opacity="0.5" x="440.5" y="25.5" width="99" height="158" stroke="#3B3D44"/>
<rect opacity="0.5" x="330.5" y="134.5" width="99" height="112" stroke="#3B3D44"/>
<rect opacity="0.5" x="220.5" y="64.5" width="99" height="129" stroke="#3B3D44"/>
<rect opacity="0.5" x="110.5" y="134.5" width="99" height="158" stroke="#3B3D44"/>
<rect opacity="0.5" x="0.5" y="84.5" width="99" height="99" stroke="#3B3D44"/>
</g>
<defs>
<clipPath id="clip0_0_896">
<rect width="2080" height="448" fill="white"/>
</clipPath>
</defs>
</svg>
