<svg width="60" height="60" viewBox="0 0 60 60" fill="none" xmlns="http://www.w3.org/2000/svg">
<path fillRule="evenodd" clipRule="evenodd" d="M14.9683 54.87C15.0573 54.87 15.1463 54.894 15.2243 54.94C19.6773 57.597 24.7863 59 30.0003 59C45.9903 59 59.0003 45.99 59.0003 30C59.0003 14.009 45.9903 1 30.0003 1C14.0103 1 1.00026 14.009 1.00026 30C1.00026 35.214 2.40426 40.323 5.05926 44.776C5.13026 44.894 5.14926 45.037 5.11126 45.17L1.22826 58.772L14.8313 54.89C14.8763 54.876 14.9223 54.87 14.9683 54.87M0.500257 60C0.369257 60 0.242257 59.948 0.147257 59.853C0.0182571 59.725 -0.030743 59.537 0.019257 59.362L4.09026 45.101C1.41426 40.538 0.00025705 35.321 0.00025705 30C0.00025705 13.458 13.4583 0 30.0003 0C46.5423 0 60.0003 13.458 60.0003 30C60.0003 46.542 46.5423 60 30.0003 60C24.6793 60 19.4623 58.586 14.8993 55.91L0.637257 59.98C0.592257 59.994 0.546257 60 0.500257 60M21.3973 13.123C21.3393 13.123 21.2803 13.124 21.2213 13.127C19.7863 13.187 18.5823 14.009 17.7033 14.609C17.4953 14.751 17.3073 14.879 17.1403 14.981C16.3223 15.469 16.0993 16.959 16.6043 18.529C21.0493 32.339 28.4293 39.878 41.2833 43.739C42.8543 44.207 44.3353 43.941 44.8043 43.097C45.2453 42.324 46.2723 40.53 46.5403 38.88C46.7363 37.679 45.8333 36.313 44.4883 35.772C43.8763 35.526 43.4063 35.318 42.9803 35.129C42.6673 34.991 42.3783 34.863 42.0733 34.738C41.0913 34.333 39.9893 34.876 39.2813 35.517L39.0093 35.767C38.0583 36.652 36.4733 36.677 34.8743 35.827C31.1963 33.873 26.4343 29.528 24.6733 24.605C24.2603 23.449 23.6353 21.701 24.6443 20.546L24.8823 20.269C25.4943 19.551 25.8853 18.305 25.4453 17.313C25.3143 17.02 25.1973 16.711 25.0803 16.399C24.9103 15.951 24.7513 15.526 24.5443 15.143C23.8193 13.802 22.7603 13.123 21.3973 13.123M42.7653 44.968C42.2053 44.968 41.6073 44.88 40.9963 44.696C27.7893 40.73 20.2103 32.996 15.6523 18.835C14.9853 16.761 15.3753 14.869 16.6233 14.126C16.7723 14.034 16.9473 13.915 17.1403 13.783C18.0633 13.152 19.4593 12.2 21.1793 12.128C23.0213 12.059 24.4843 12.93 25.4243 14.668C25.6623 15.11 25.8423 15.586 26.0153 16.047C26.1263 16.339 26.2353 16.63 26.3593 16.906C26.9943 18.341 26.4333 19.991 25.6433 20.918L25.4003 21.199C24.8763 21.8 25.0823 22.779 25.6143 24.268C27.2123 28.732 31.7183 33.018 35.3433 34.944C36.5353 35.577 37.7073 35.612 38.3323 35.032L38.6063 34.78C39.5423 33.93 41.0413 33.228 42.4533 33.813C42.7663 33.941 43.0633 34.072 43.3853 34.215C43.8023 34.4 44.2633 34.604 44.8613 34.845C46.6533 35.565 47.7993 37.369 47.5273 39.04C47.2303 40.869 46.1413 42.773 45.6753 43.587C45.1823 44.476 44.0853 44.968 42.7653 44.968" fill="#D5FF40"/>
</svg>
