<svg width="60" height="60" viewBox="0 0 60 60" fill="none" xmlns="http://www.w3.org/2000/svg">
<g id="Icons/Main/client">
<path id="Fill 1" fill-rule="evenodd" clip-rule="evenodd" d="M39.0127 34.368C29.0337 34.368 20.4507 41.793 19.0477 51.639C18.9647 52.222 19.1417 52.815 19.5347 53.268C19.9377 53.733 20.5197 54 21.1317 54H56.8937C57.5057 54 58.0877 53.733 58.4917 53.267C58.8847 52.815 59.0617 52.222 58.9787 51.639C57.5747 41.793 48.9917 34.368 39.0127 34.368ZM56.8937 55H21.1317C20.2297 55 19.3727 54.607 18.7797 53.924C18.1967 53.252 17.9337 52.368 18.0567 51.498C19.5297 41.162 28.5387 33.368 39.0127 33.368C49.4867 33.368 58.4957 41.162 59.9687 51.498C60.0927 52.367 59.8297 53.252 59.2467 53.923C58.6537 54.607 57.7957 55 56.8937 55ZM16.2617 46.763C16.2617 46.486 16.0377 46.263 15.7617 46.263H3.1027C2.4697 46.263 1.8497 45.969 1.4457 45.475C1.0697 45.015 0.923699 44.455 1.0357 43.893C2.4107 36.88 8.6037 31.789 15.7617 31.789C18.9467 31.789 21.9867 32.773 24.5547 34.636C24.7787 34.795 25.0917 34.747 25.2537 34.524C25.4157 34.301 25.3657 33.987 25.1417 33.825C22.4017 31.839 19.1587 30.789 15.7617 30.789C8.1267 30.789 1.5207 36.22 0.054699 43.699C-0.114301 44.545 0.110699 45.424 0.672699 46.109C1.2727 46.843 2.1587 47.263 3.1027 47.263H15.7617C16.0377 47.263 16.2617 47.039 16.2617 46.763ZM18.3457 7.289C15.0597 7.289 12.3867 9.957 12.3867 13.237C12.3867 16.516 15.0597 19.184 18.3457 19.184C21.6307 19.184 24.3037 16.516 24.3037 13.237C24.3037 9.957 21.6307 7.289 18.3457 7.289ZM18.3457 20.184C14.5087 20.184 11.3867 17.067 11.3867 13.237C11.3867 9.406 14.5087 6.289 18.3457 6.289C22.1817 6.289 25.3037 9.406 25.3037 13.237C25.3037 17.067 22.1817 20.184 18.3457 20.184ZM39.0127 6C35.0147 6 31.7627 9.375 31.7627 13.523V18.108C31.7627 22.256 35.0147 25.631 39.0127 25.631C43.0107 25.631 46.2637 22.256 46.2637 18.108V13.523C46.2637 9.375 43.0107 6 39.0127 6ZM39.0127 26.631C34.4637 26.631 30.7627 22.808 30.7627 18.108V13.523C30.7627 8.824 34.4637 5 39.0127 5C43.5627 5 47.2637 8.824 47.2637 13.523V18.108C47.2637 22.808 43.5627 26.631 39.0127 26.631Z" fill="white"/>
</g>
</svg>
