<svg xmlns="http://www.w3.org/2000/svg" xmlns:xlink="http://www.w3.org/1999/xlink" width="60" height="55" viewBox="0 0 60 55" version="1.1">
    <title>UI/Icons/60px/services</title>
    <g id="🤩-GetPromo" stroke="none" stroke-width="1" fill="none" fill-rule="evenodd">
        <g id="(2.0)-Marketing" transform="translate(-930.000000, -1646.000000)" fill="#161921">
            <g id="FEATURES" transform="translate(360.000000, 1313.000000)">
                <g id="4" transform="translate(400.000000, 200.000000)">
                    <g id="UI/Icons/60px/services" transform="translate(170.000000, 130.000000)">
                        <path d="M51.3301,22.636 L46.0951,11.743 C45.4151,10.008 43.8031,8.909 41.9721,8.909 L37.4901,8.909 C36.8301,10.353 35.3781,11.364 33.6871,11.364 L23.8541,11.364 C22.1631,11.364 20.7121,10.353 20.0511,8.909 L15.5701,8.909 C13.7381,8.909 12.1261,10.008 11.4631,11.708 L6.2111,22.636 L51.3301,22.636 Z M20.6661,7.181 C20.6661,8.936 22.0961,10.364 23.8541,10.364 L33.6871,10.364 C35.4451,10.364 36.8751,8.936 36.8751,7.181 C36.8751,5.427 35.4451,4 33.6871,4 L23.8541,4 C22.0961,4 20.6661,5.427 20.6661,7.181 L20.6661,7.181 Z M57.5241,23.269 L56.0001,28.792 C55.9271,29.057 55.6471,29.215 55.3851,29.141 C55.1181,29.068 54.9621,28.792 55.0351,28.526 L56.3861,23.636 L52.1251,23.636 L5.4161,23.636 L1.1581,23.636 L9.6351,54.126 C10.2631,55.829 11.9321,57 13.7751,57 L43.6431,57 C43.9201,57 44.1431,57.223 44.1431,57.5 C44.1431,57.776 43.9201,58 43.6431,58 L13.7751,58 C11.5141,58 9.4681,56.566 8.6841,54.432 L0.0181,23.27 C-0.0239,23.119 0.0071,22.958 0.1021,22.833 C0.1961,22.709 0.3441,22.636 0.5001,22.636 L5.1021,22.636 L10.5461,11.309 C11.3451,9.258 13.3231,7.909 15.5701,7.909 L19.7401,7.909 C19.6981,7.672 19.6661,7.43 19.6661,7.181 C19.6661,4.876 21.5451,3 23.8541,3 L33.6871,3 C35.9961,3 37.8751,4.876 37.8751,7.181 C37.8751,7.43 37.8441,7.672 37.8021,7.909 L41.9721,7.909 C44.2181,7.909 46.1951,9.258 47.0111,11.344 L52.4391,22.636 L57.0421,22.636 C57.1981,22.636 57.3461,22.709 57.4391,22.833 C57.5341,22.957 57.5651,23.118 57.5241,23.269 L57.5241,23.269 Z M60.0001,45.227 C60.0001,45.504 59.7761,45.727 59.5001,45.727 L52.6251,45.727 L52.6251,52.591 C52.6251,52.867 52.4011,53.091 52.1251,53.091 C51.8491,53.091 51.6251,52.867 51.6251,52.591 L51.6251,45.727 L44.7501,45.727 C44.4741,45.727 44.2501,45.504 44.2501,45.227 C44.2501,44.951 44.4741,44.727 44.7501,44.727 L51.6251,44.727 L51.6251,37.863 C51.6251,37.587 51.8491,37.363 52.1251,37.363 C52.4011,37.363 52.6251,37.587 52.6251,37.863 L52.6251,44.727 L59.5001,44.727 C59.7761,44.727 60.0001,44.951 60.0001,45.227 L60.0001,45.227 Z" id="Fill-1"/>
                    </g>
                </g>
            </g>
        </g>
    </g>
</svg>