<svg width="60" height="60" viewBox="0 0 60 60" fill="none" xmlns="http://www.w3.org/2000/svg">
<g id="Icons/Main/quote fill">
<path id="Fill 1" fill-rule="evenodd" clip-rule="evenodd" d="M47.6478 24.666C47.6068 23.18 47.9658 20.002 50.9048 15.699C51.2938 15.132 51.2238 14.367 50.7398 13.88C49.4338 12.563 48.6038 11.711 48.0168 11.109L47.9428 11.033C47.1828 10.252 46.8018 9.861 46.2648 9.37C45.7288 8.882 44.9168 8.877 44.3758 9.352C38.4578 14.545 31.8848 25.271 32.8348 38.409C33.4028 46.284 39.1138 52 46.4148 52C53.9058 52 60.0008 45.856 60.0008 38.306C60.0008 31.206 54.6098 25.299 47.6478 24.666ZM27.2588 38.306C27.2588 45.856 21.1648 52 13.6738 52C6.37478 52 0.662779 46.284 0.0917794 38.409C-0.856221 25.27 5.71678 14.544 11.6338 9.351C12.1768 8.875 12.9898 8.884 13.5238 9.369C14.0598 9.86 14.4188 10.229 15.2048 11.036C15.8238 11.672 16.6608 12.532 17.9978 13.88C18.4808 14.367 18.5498 15.132 18.1628 15.699C15.2198 20.008 14.8628 23.182 14.9058 24.666C21.8678 25.297 27.2588 31.204 27.2588 38.306Z" fill="#D5FF40"/>
</g>
</svg>
