<svg width="60" height="60" viewBox="0 0 60 60" fill="none" xmlns="http://www.w3.org/2000/svg">
<g id="Icons/Main/social">
<path id="Fill 1" fill-rule="evenodd" clip-rule="evenodd" d="M52.817 40.9429H51.68H50.544C50.267 40.9429 50.044 41.1669 50.044 41.4429C50.044 41.7189 50.267 41.9429 50.544 41.9429C52.774 41.9429 54.589 43.7579 54.589 45.9889C54.589 48.2189 52.774 50.0349 50.544 50.0349H49.407C49.339 50.0349 49.276 50.0489 49.217 50.0729C49.09 50.0619 48.968 50.0349 48.838 50.0349H48.271C47.995 50.0349 47.771 50.2579 47.771 50.5349C47.771 50.8109 47.995 51.0349 48.271 51.0349H48.838C50.756 51.0349 52.317 52.5939 52.317 54.5119C52.317 56.4299 50.756 57.9899 48.838 57.9899H47.134H33.504C29.559 57.9899 22.571 54.6959 21.148 54.0049V28.7639C29.588 26.4979 38.542 16.0779 38.542 2.80291C38.542 1.68491 39.498 1.15491 40.392 1.03191C42.227 0.781914 44.612 1.98091 45.516 5.21091C47.123 10.9519 44.982 16.1329 42.913 21.1429C42.645 21.7889 42.379 22.4319 42.124 23.0739C42.062 23.2279 42.081 23.4019 42.173 23.5399C42.266 23.6769 42.421 23.7589 42.588 23.7589H53.954C56.184 23.7589 58 25.5739 58 27.8049C58 30.0359 56.184 31.8509 53.954 31.8509H52.816C52.54 31.8509 52.316 32.0749 52.316 32.3509C52.316 32.6279 52.54 32.8509 52.816 32.8509H52.817C55.047 32.8509 56.863 34.6669 56.863 36.8969C56.863 39.1279 55.047 40.9429 52.817 40.9429ZM20.148 58.5009C20.148 58.7759 19.923 59.0009 19.648 59.0009H3.5C3.224 59.0009 3 58.7759 3 58.5009V24.2069C3 23.9309 3.224 23.7069 3.5 23.7069H19.648C19.923 23.7069 20.148 23.9309 20.148 24.2069V58.5009ZM55.433 32.6039C57.491 31.9669 59 30.0689 59 27.8049C59 25.0229 56.736 22.7589 53.954 22.7589H43.329C43.497 22.3489 43.667 21.9379 43.837 21.5249C45.971 16.3579 48.178 11.0149 46.479 4.94091C45.414 1.13391 42.505 -0.266086 40.256 0.0409145C38.632 0.263914 37.542 1.37391 37.542 2.80291C37.542 15.4669 29.15 25.4139 21.148 27.7209V24.2069C21.148 23.3799 20.475 22.7069 19.648 22.7069H3.5C2.672 22.7069 2 23.3799 2 24.2069V58.5009C2 59.3279 2.672 60.0009 3.5 60.0009H19.648C20.475 60.0009 21.148 59.3279 21.148 58.5009V55.1149C23.275 56.1289 29.617 58.9899 33.504 58.9899H47.134H48.838H49.407C49.504 58.9899 49.59 58.9549 49.668 58.9059C51.742 58.5149 53.317 56.6969 53.317 54.5119C53.317 53.0469 52.599 51.7549 51.506 50.9369C53.829 50.4859 55.589 48.4409 55.589 45.9889C55.589 44.2919 54.741 42.7939 53.451 41.8789C54.393 41.7579 55.248 41.3839 55.955 40.8169C56.034 40.7839 56.095 40.7249 56.148 40.6579C57.191 39.7329 57.863 38.3979 57.863 36.8969C57.863 35.0759 56.884 33.4919 55.433 32.6039ZM15.31 53.3069C14.96 53.3069 14.674 53.5919 14.674 53.9439C14.674 54.2959 14.96 54.5809 15.31 54.5809C15.661 54.5809 15.947 54.2959 15.947 53.9439C15.947 53.5919 15.661 53.3069 15.31 53.3069ZM15.31 55.5809C14.408 55.5809 13.674 54.8459 13.674 53.9439C13.674 53.0419 14.408 52.3069 15.31 52.3069C16.213 52.3069 16.947 53.0419 16.947 53.9439C16.947 54.8459 16.213 55.5809 15.31 55.5809Z" fill="white"/>
</g>
</svg>
