<?xml version="1.0" encoding="UTF-8"?>
<svg width="1110px" height="317px" viewBox="0 0 1110 317" version="1.1" xmlns="http://www.w3.org/2000/svg" xmlns:xlink="http://www.w3.org/1999/xlink">
    <title>logo</title>
    <g stroke="none" stroke-width="1" fill="none" fill-rule="evenodd">
        <g id="logo" fill="#FFFFFF" fill-rule="nonzero">
            <path d="M66.3544861,0 C84.4021111,0 101.157577,4.39297499 113,11.1678552 L107.533174,46.4970729 C96.0599397,38.6239489 81.6757979,34.7872272 69.0807992,34.9583821 C60.1492837,34.9583821 55.0658457,36.9837147 54.6824579,40.8204364 C53.5890927,53.2576903 115.002136,52.1594465 107.888163,96.1034593 C102.804725,126.312294 78.0123147,134 49.939809,134 C29.8900478,134 12.7653933,129.236189 0,121.363065 L5.83601407,84.7501863 C19.8651671,95.1763704 35.1722795,98.6565194 47.9234732,98.6565194 C59.041719,98.6565194 64.693139,96.4600319 65.2327218,92.808728 C67.4194521,78.1607238 5.28223172,82.0117084 12.1974114,36.2420436 C16.0596884,11.7241086 41.0082935,0 66.3544861,0 Z" id="Path"></path>
            <polygon id="Path" points="112 130.985752 116.20999 104.300089 173.351682 39.9296527 129.582059 39.9296527 135.247706 3 238 3 233.804281 29.8708816 176.662589 94.0560997 225.741081 94.0560997 219.875637 131 112 131"></polygon>
            <polygon id="Path" points="448 3 389.200141 131 343.179148 131 336.789715 66.4585931 309.211272 131 264.257555 131 246 3 289.843748 3 295.678197 80.1647373 327.99535 3 362.8882 3 370.188376 80.1647373 401.239028 3"></polygon>
            <polygon id="Path" points="551 3 545.710258 36.2822796 490.950049 36.2822796 488.760209 51.0854853 536.950899 51.0854853 532.01665 82.1878896 483.84018 82.1878896 481.465484 97.3472841 537.121536 97.3472841 531.831794 131 434 131 454.277346 3"></polygon>
            <path d="M548,131 L568.383991,3 L600.311758,3 L638.304657,64.6206589 C638.50492,57.126447 639.234453,49.6179875 640.335903,43.0498664 L646.601299,3 L689,3 L668.616009,131 L636.688242,131 L598.852694,69.5503117 C598.852694,77.2297418 597.951507,83.9973286 597.02171,90.3944791 L590.398701,130.985752 L548,130.985752 L548,131 Z" id="Path"></path>
            <path d="M760.661467,3 C805.046658,3 823.958609,30.7969724 817.897636,69.5503117 C812.036789,105.753339 788.736351,131 743.050338,131 L686,131 L706.355721,3 L760.661467,3 Z M756.072853,38.4764025 L743.050338,38.4764025 L734.058941,95.5235975 L745.080192,95.5235975 C760.475635,95.5235975 771.854254,87.6589492 775.156341,65.5325022 C778.444132,45.984862 770.567727,38.4764025 756.072853,38.4764025 Z" id="Shape"></path>
            <path d="M901.871437,131 L898.935719,114.002671 L853.759854,114.002671 L845.536992,131 L802,131 L870.020315,3 L915.566707,3 L943,131 L901.871437,131 Z M868.19618,83.4559216 L893.9906,83.4559216 L889.41601,55.6589492 C888.689206,50.715049 888.133414,46.1558326 888.133414,39.2030276 C886.124015,45.7853963 884.299879,50.5298308 881.919951,55.4737311 L868.19618,83.4559216 Z" id="Shape"></path>
            <polygon id="Path" points="1110 3.01424597 1090.29672 131 1050.32029 131 1059.55219 71.5800779 1035.38968 103.932666 1012.1247 103.932666 997.379298 71.3806344 987.976431 130.985754 948 130.985754 967.717527 3 1002.8928 3 1028.65095 60.0408459 1070.93536 3 1110 3"></polygon>
            <path d="M858.354486,143 C876.402111,143 893.157577,147.392507 905,154.166667 L899.518975,189.506386 C888.04574,181.6341 873.661598,177.783525 861.080799,177.968923 C852.149284,177.968923 847.051646,179.99404 846.682458,183.830353 C845.589093,196.266284 907.002136,195.168157 899.888163,239.107493 C894.790525,269.313112 870.012315,277 841.939809,277 C821.904247,277 804.765393,272.236696 792,264.36441 L797.836014,227.769689 C811.865167,238.194764 827.15808,241.674542 839.937673,241.674542 C851.055919,241.674542 856.707339,239.478289 857.246921,235.827373 C859.419452,221.180928 797.282232,225.017241 804.225811,179.266709 C808.045489,154.708599 833.022493,143 858.354486,143 Z" id="Path"></path>
            <polygon id="Path" points="971 146 950.559809 274 908 274 928.440191 146"></polygon>
            <path d="M1081.70961,179.251977 L1026.95697,179.251977 L1024.76687,194.055939 L1072.96341,194.055939 L1068.04279,225.115791 L1019.83202,225.115791 L1017.47125,240.275618 L1073.13407,240.275618 L1067.84369,273.897694 C1061.81378,278.281945 1056.33852,284.85832 1056.33852,288.872471 C1056.33852,290.879547 1057.43357,292.160659 1060.34897,292.160659 C1061.99866,292.160659 1063.63413,291.804795 1064.91406,291.249646 L1061.27337,314.437776 C1056.50918,316.274036 1051.58855,317 1046.11329,317 C1032.43224,317 1022.7332,310.053525 1023.67181,298.181886 C1024.21223,290.509448 1029.88659,281.185799 1041.17844,273.88346 L970,273.88346 L990.265589,146 L1087,146 L1081.70961,179.251977 Z" id="Path"></path>
        </g>
    </g>
</svg>