<?xml version="1.0" encoding="UTF-8" standalone="no"?>
<!DOCTYPE svg PUBLIC "-//W3C//DTD SVG 1.1//EN" "http://www.w3.org/Graphics/SVG/1.1/DTD/svg11.dtd">
<svg width="100%" height="100%" viewBox="0 0 60 60" version="1.1" xmlns="http://www.w3.org/2000/svg" xmlns:xlink="http://www.w3.org/1999/xlink" xml:space="preserve" xmlns:serif="http://www.serif.com/" style="fill-rule:evenodd;clip-rule:evenodd;stroke-linejoin:round;stroke-miterlimit:2;">
    <g transform="matrix(2.07722,0,0,2.07722,850.511,586.253)">
        <path d="M-381.316,-274.664C-381.645,-275.894 -382.612,-276.86 -383.842,-277.19C-386.069,-277.787 -395.004,-277.787 -395.004,-277.787C-395.004,-277.787 -403.939,-277.787 -406.166,-277.19C-407.396,-276.86 -408.362,-275.894 -408.692,-274.664C-409.289,-272.437 -409.289,-267.787 -409.289,-267.787C-409.289,-267.787 -409.289,-263.137 -408.692,-260.91C-408.362,-259.68 -407.396,-258.714 -406.166,-258.384C-403.939,-257.787 -395.004,-257.787 -395.004,-257.787C-395.004,-257.787 -386.069,-257.787 -383.842,-258.384C-382.612,-258.714 -381.645,-259.68 -381.316,-260.91C-380.719,-263.137 -380.719,-267.787 -380.719,-267.787C-380.719,-267.787 -380.721,-272.437 -381.316,-274.664Z" style="fill:rgb(255,0,0);fill-rule:nonzero;"/>
        <path d="M-397.864,-263.502L-390.441,-267.787L-397.864,-272.072L-397.864,-263.502Z" style="fill:white;fill-rule:nonzero;"/>
    </g>
</svg>
